# xmcd CD database file
#
# Track frame offsets:
#	150
#	11939
#	23188
#	32060
#	43932
#	53865
#	64699
#	77417
#	91263
#	101421
#	114621
#	122761
#	133140
#	144599
#	157259
#	166965
#	179625
#
# Disc length: 2526 seconds
#
# Revision: 0
# Processed by: cddbd v1.5.2PL0 Copyright (c) Steve Scherf et al.
# Submitted via: CDex 1.51
#
DISCID=ee09dc11
DTITLE=Dolly Parton and Porter Wagoner - Duets
DYEAR=2008
DGENRE=Country
TTITLE0=The Last Thing On My Mind
TTITLE1=Holding On To Nothin'
TTITLE2=We'll Get Ahead Someday
TTITLE3=Always, Always
TTITLE4=I Don't Believe You Met My Baby
TTITLE5=Just Someone I Used To Know
TTITLE6=Tomorrow Is Forever
TTITLE7=Daddy Was An Old Time Preacher Man
TTITLE8=Better Move It On Home
TTITLE9=The Right Combination
TTITLE10=Burning The Midnight Oil
TTITLE11=Together Always
TTITLE12=We Found It
TTITLE13=Say Forever You'll Be Mine
TTITLE14=If Teardrops Were Pennies
TTITLE15=Please Don't Stop Loving Me
TTITLE16=Making Plans
EXTD=YEAR: 2008
EXTT0=
EXTT1=
EXTT2=
EXTT3=
EXTT4=
EXTT5=
EXTT6=
EXTT7=
EXTT8=
EXTT9=
EXTT10=
EXTT11=
EXTT12=
EXTT13=
EXTT14=
EXTT15=
EXTT16=
PLAYORDER=
